<?xml version="1.0" standalone="no"?><!DOCTYPE svg PUBLIC "-//W3C//DTD SVG 1.1//EN" "http://www.w3.org/Graphics/SVG/1.1/DTD/svg11.dtd"><svg t="1563152932659" class="icon" viewBox="0 0 1024 1024" version="1.1" xmlns="http://www.w3.org/2000/svg" p-id="1679" xmlns:xlink="http://www.w3.org/1999/xlink" width="200" height="200"><defs><style type="text/css"></style></defs><path d="M145.7 389.9V145.6l244.2-0.1 0.1 244.3-244.3 0.1zM390 64.2H145.6c-44.9 0.1-81.2 36.4-81.3 81.3v244.4c0.1 44.9 36.4 81.2 81.3 81.3H390c44.9-0.1 81.2-36.4 81.3-81.3V145.5c-0.1-44.9-36.5-81.2-81.3-81.3zM145.7 878.3V634l244.2-0.1 0.1 244.3-244.3 0.1zM390 552.6H145.6c-44.9 0.1-81.2 36.4-81.3 81.3v244.4c0.1 44.9 36.4 81.2 81.3 81.3H390c44.9-0.1 81.2-36.4 81.3-81.3V633.9c-0.1-44.9-36.5-81.2-81.3-81.3z m244-162.7V145.6l244.2-0.1 0.1 244.3-244.3 0.1zM878.3 64.2H633.9c-44.9 0.1-81.2 36.4-81.3 81.3v244.4c0.1 44.9 36.4 81.2 81.3 81.3h244.4c44.9-0.1 81.2-36.4 81.3-81.3V145.5c0-44.9-36.4-81.2-81.3-81.3zM756.1 634c-22.5 0-40.7 18.2-40.7 40.7v244.2c0 22.5 18.2 40.7 40.7 40.7s40.7-18.2 40.7-40.7V674.7c0-22.5-18.2-40.7-40.7-40.7m-162.8 0c-22.5 0-40.7 18.2-40.7 40.7v244.2c0 22.5 18.2 40.7 40.7 40.7 22.5 0 40.7-18.2 40.7-40.7V674.7c0-22.5-18.2-40.7-40.7-40.7m325.6-81.4c-22.5 0-40.7 18.2-40.7 40.7v325.6c0 22.5 18.2 40.7 40.7 40.7 22.5 0 40.7-18.2 40.7-40.7V593.3c0-22.5-18.2-40.7-40.7-40.7" p-id="1680"></path></svg>