<?xml version="1.0" standalone="no"?><!DOCTYPE svg PUBLIC "-//W3C//DTD SVG 1.1//EN" "http://www.w3.org/Graphics/SVG/1.1/DTD/svg11.dtd"><svg t="1563152853103" class="icon" viewBox="0 0 1033 1024" version="1.1" xmlns="http://www.w3.org/2000/svg" p-id="1561" xmlns:xlink="http://www.w3.org/1999/xlink" width="201.7578125" height="200"><defs><style type="text/css"></style></defs><path d="M116.363636 425.890909c13.963636 0 23.272727-9.309091 23.272728-23.272727V181.527273C139.636364 158.254545 158.254545 139.636364 181.527273 139.636364h221.090909c13.963636 0 23.272727-9.309091 23.272727-23.272728s-9.309091-23.272727-23.272727-23.272727H181.527273C132.654545 93.090909 93.090909 132.654545 93.090909 181.527273v221.090909c0 11.636364 9.309091 23.272727 23.272727 23.272727zM621.381818 139.636364h221.090909c23.272727 0 41.890909 18.618182 41.890909 41.890909v221.090909c0 13.963636 9.309091 23.272727 23.272728 23.272727s23.272727-9.309091 23.272727-23.272727V181.527273C930.909091 132.654545 891.345455 93.090909 842.472727 93.090909h-221.090909c-13.963636 0-23.272727 9.309091-23.272727 23.272727s11.636364 23.272727 23.272727 23.272728zM402.618182 884.363636H181.527273c-23.272727 0-41.890909-18.618182-41.890909-41.890909v-221.090909c0-13.963636-9.309091-23.272727-23.272728-23.272727s-23.272727 9.309091-23.272727 23.272727v221.090909C93.090909 891.345455 132.654545 930.909091 181.527273 930.909091h221.090909c13.963636 0 23.272727-9.309091 23.272727-23.272727s-11.636364-23.272727-23.272727-23.272728zM907.636364 598.109091c-13.963636 0-23.272727 9.309091-23.272728 23.272727v221.090909c0 23.272727-18.618182 41.890909-41.890909 41.890909h-221.090909c-13.963636 0-23.272727 9.309091-23.272727 23.272728s9.309091 23.272727 23.272727 23.272727h221.090909c48.872727 0 88.436364-39.563636 88.436364-88.436364v-221.090909c0-11.636364-9.309091-23.272727-23.272727-23.272727zM935.563636 488.727273H88.436364c-13.963636 0-23.272727 9.309091-23.272728 23.272727s9.309091 23.272727 23.272728 23.272727h847.127272c13.963636 0 23.272727-9.309091 23.272728-23.272727s-9.309091-23.272727-23.272728-23.272727z" fill="" p-id="1562"></path></svg>